<svg xmlns="http://www.w3.org/2000/svg" viewBox="0 0 512 512"><radialGradient id="a" cx="256" cy="258" r="256" gradientTransform="matrix(1 0 0 -1 0 514)" gradientUnits="userSpaceOnUse"><stop offset="0" stop-color="#9c56b8"/><stop offset="1" stop-color="#8f3faf"/></radialGradient><path d="M512 256c0 141.385-114.615 256-256 256a257.428 257.428 0 0 1-48.002-4.492C187.345 503.59 168.575 481.559 150 473c-18.962-8.736-37.679-4.091-53.797-16.986C37.562 409.102 0 336.938 0 256 0 114.615 114.615 0 256 0s256 114.615 256 256z" fill="url(#a)"/><path d="M256 24v6c5.247 0 9.5 4.253 9.5 9.5S261.247 49 256 49v38c7.7 0 14-6.3 14-14V38c0-7.7-6.3-14-14-14z" fill="#7f8c8d"/><path d="M246.5 39.5A9.5 9.5 0 0 1 256 30v-6c-7.7 0-14 6.3-14 14v35c0 7.7 6.3 14 14 14V49a9.5 9.5 0 0 1-9.5-9.5z" fill="#95a5a6"/><path d="M391 401c0 5.5-4.5 10-10 10H131c-5.5 0-10-4.5-10-10V83c0-5.5 4.5-10 10-10h250c5.5 0 10 4.5 10 10v318z" fill="#e94b35"/><path d="M304 79c0 6.6-5.4 12-12 12h-72c-6.6 0-12-5.4-12-12v-4c0-6.6 5.4-12 12-12h72c6.6 0 12 5.4 12 12v4z" fill="#95a5a6"/><path d="M146 395c-2.75 0-5-2.25-5-5V93c0-2.75 2.25-5 5-5h220c2.75 0 5 2.25 5 5v297c0 2.75-2.25 5-5 5H146z" fill="#ecf0f1"/><path fill="#7f8c8d" d="M208 77h96v14h-96z"/><path d="M217 172a3 3 0 0 1-3 3h-39a3 3 0 0 1-3-3v-39a3 3 0 0 1 3-3h39a3 3 0 0 1 3 3v39zm-39-3h33v-33h-33v33zm39 63a3 3 0 0 1-3 3h-39a3 3 0 0 1-3-3v-39a3 3 0 0 1 3-3h39a3 3 0 0 1 3 3v39zm-39-3h33v-33h-33v33zm39 63a3 3 0 0 1-3 3h-39a3 3 0 0 1-3-3v-39a3 3 0 0 1 3-3h39a3 3 0 0 1 3 3v39zm-39-3h33v-33h-33v33zm39 63a3 3 0 0 1-3 3h-39a3 3 0 0 1-3-3v-39a3 3 0 0 1 3-3h39a3 3 0 0 1 3 3v39zm-39-3h33v-33h-33v33z" fill="#33495f"/><path d="M340 138h-99a4 4 0 0 1 0-8h99a4 4 0 0 1 0 8zm5 20H241a4 4 0 0 1 0-8h104a4 4 0 0 1 0 8zm0 40H241a4 4 0 0 1 0-8h104a4 4 0 0 1 0 8zm-52 20h-52a4 4 0 0 1 0-8h52a4 4 0 0 1 0 8zm47 19h-99a4 4 0 0 1 0-8h99a4 4 0 0 1 0 8zm-13 22h-86a4 4 0 0 1 0-8h86a4 4 0 0 1 0 8zm-29 19h-57a4 4 0 0 1 0-8h57a4 4 0 0 1 0 8zm47 19H241a4 4 0 0 1 0-8h104a4 4 0 0 1 0 8zm-68 20h-36a4 4 0 0 1 0-8h36a4 4 0 0 1 0 8zm13 20h-49a4 4 0 0 1 0-8h49a4 4 0 0 1 0 8zm50 20h-99a4 4 0 0 1 0-8h99a4 4 0 0 1 0 8z" fill="#bdc3c7"/><path d="M190 221.5a3.992 3.992 0 0 1-2.793-1.136l-23-22.428a4 4 0 1 1 5.585-5.728l20.277 19.773 38.211-35.415a4 4 0 0 1 5.653.215 3.999 3.999 0 0 1-.214 5.652l-41 38A3.984 3.984 0 0 1 190 221.5z" fill="#1eca6b"/><path d="M100.225 351.184L121 308v-43s-2.333-17 13-17 12 15 12 15l.306 56s41.025 28 14.806 92H222l-33.669 35h-81l-7.106-94.816z" fill="#e5bf88"/><path fill="#ecf0f1" d="M100 439h99v17h-99z"/><path fill="#bdc3c7" d="M149 439h50v17h-50z"/><path d="M208 507.487V456H96.212c31.908 25.525 70.053 43.569 111.788 51.487z" fill="#33495f"/><path d="M149 488.617a254.083 254.083 0 0 0 59 18.87V456h-59v32.617z" fill="#2b3e51"/><path fill="#bfa072" d="M161.112 411L199 434.909 222 411z"/><circle cx="133.5" cy="262" r="9" fill="#ecf0f1"/></svg>