<?xml version="1.0" encoding="iso-8859-1"?>
<!-- Generator: Adobe Illustrator 19.0.0, SVG Export Plug-In . SVG Version: 6.00 Build 0)  -->
<svg version="1.1" id="Layer_1" xmlns="http://www.w3.org/2000/svg" xmlns:xlink="http://www.w3.org/1999/xlink" x="0px" y="0px"
	 viewBox="0 0 512 512" style="enable-background:new 0 0 512 512;" xml:space="preserve">
<g id="Others">
</g>
<g id="Design">
</g>
<g id="SEO_x2F__Web">
</g>
<g id="Finance__x2F__Money">
</g>
<g id="E-Commerce__x2F__Shopping">
</g>
<g id="Strategy">
	<g id="checklist">
		
			<radialGradient id="SVGID_1_" cx="256" cy="258" r="256" gradientTransform="matrix(1 0 0 -1 0 514)" gradientUnits="userSpaceOnUse">
			<stop  offset="0" style="stop-color:#9C56B8"/>
			<stop  offset="1" style="stop-color:#8F3FAF"/>
		</radialGradient>
		<path style="fill:url(#SVGID_1_);" d="M512,256c0,141.385-114.615,256-256,256c-16.407,0-32.453-1.543-48.002-4.492
			C187.345,503.59,168.575,481.559,150,473c-18.962-8.736-37.679-4.091-53.797-16.986C37.562,409.102,0,336.938,0,256
			C0,114.615,114.615,0,256,0S512,114.615,512,256z"/>
		<g>
			<path style="fill:#7F8C8D;" d="M256,24v6c5.247,0,9.5,4.253,9.5,9.5S261.247,49,256,49v38c7.7,0,14-6.3,14-14V38
				C270,30.3,263.7,24,256,24z"/>
			<path style="fill:#95A5A6;" d="M246.5,39.5c0-5.247,4.253-9.5,9.5-9.5v-6c-7.7,0-14,6.3-14,14v35c0,7.7,6.3,14,14,14V49
				C250.753,49,246.5,44.747,246.5,39.5z"/>
		</g>
		<g>
			<path style="fill:#E94B35;" d="M391,401c0,5.5-4.5,10-10,10H131c-5.5,0-10-4.5-10-10V83c0-5.5,4.5-10,10-10h250
				c5.5,0,10,4.5,10,10V401z"/>
		</g>
		<path style="fill:#95A5A6;" d="M304,79c0,6.6-5.4,12-12,12h-72c-6.6,0-12-5.4-12-12v-4c0-6.6,5.4-12,12-12h72c6.6,0,12,5.4,12,12
			V79z"/>
		<g>
			<path style="fill:#ECF0F1;" d="M146,395c-2.75,0-5-2.25-5-5V93c0-2.75,2.25-5,5-5h220c2.75,0,5,2.25,5,5v297c0,2.75-2.25,5-5,5
				H146z"/>
		</g>
		<rect x="208" y="77" style="fill:#7F8C8D;" width="96" height="14"/>
		<g>
			<g>
				<path style="fill:#33495F;" d="M217,172c0,1.656-1.343,3-3,3h-39c-1.657,0-3-1.344-3-3v-39c0-1.656,1.343-3,3-3h39
					c1.657,0,3,1.344,3,3V172z M178,169h33v-33h-33V169z"/>
			</g>
			<g>
				<path style="fill:#33495F;" d="M217,232c0,1.656-1.343,3-3,3h-39c-1.657,0-3-1.344-3-3v-39c0-1.656,1.343-3,3-3h39
					c1.657,0,3,1.344,3,3V232z M178,229h33v-33h-33V229z"/>
			</g>
			<g>
				<path style="fill:#33495F;" d="M217,292c0,1.656-1.343,3-3,3h-39c-1.657,0-3-1.344-3-3v-39c0-1.656,1.343-3,3-3h39
					c1.657,0,3,1.344,3,3V292z M178,289h33v-33h-33V289z"/>
			</g>
			<g>
				<path style="fill:#33495F;" d="M217,352c0,1.656-1.343,3-3,3h-39c-1.657,0-3-1.344-3-3v-39c0-1.656,1.343-3,3-3h39
					c1.657,0,3,1.344,3,3V352z M178,349h33v-33h-33V349z"/>
			</g>
			<g>
				<path style="fill:#BDC3C7;" d="M340,138h-99c-2.209,0-4-1.791-4-4s1.791-4,4-4h99c2.209,0,4,1.791,4,4S342.209,138,340,138z"/>
			</g>
			<g>
				<path style="fill:#BDC3C7;" d="M345,158H241c-2.209,0-4-1.791-4-4s1.791-4,4-4h104c2.209,0,4,1.791,4,4S347.209,158,345,158z"/>
			</g>
			<g>
				<path style="fill:#BDC3C7;" d="M345,198H241c-2.209,0-4-1.791-4-4s1.791-4,4-4h104c2.209,0,4,1.791,4,4S347.209,198,345,198z"/>
			</g>
			<g>
				<path style="fill:#BDC3C7;" d="M293,218h-52c-2.209,0-4-1.791-4-4s1.791-4,4-4h52c2.209,0,4,1.791,4,4S295.209,218,293,218z"/>
			</g>
			<g>
				<path style="fill:#BDC3C7;" d="M340,237h-99c-2.209,0-4-1.791-4-4s1.791-4,4-4h99c2.209,0,4,1.791,4,4S342.209,237,340,237z"/>
			</g>
			<g>
				<path style="fill:#BDC3C7;" d="M327,259h-86c-2.209,0-4-1.791-4-4s1.791-4,4-4h86c2.209,0,4,1.791,4,4
					C331,257.209,329.209,259,327,259z"/>
			</g>
			<g>
				<path style="fill:#BDC3C7;" d="M298,278h-57c-2.209,0-4-1.791-4-4s1.791-4,4-4h57c2.209,0,4,1.791,4,4S300.209,278,298,278z"/>
			</g>
			<g>
				<path style="fill:#BDC3C7;" d="M345,297H241c-2.209,0-4-1.791-4-4s1.791-4,4-4h104c2.209,0,4,1.791,4,4S347.209,297,345,297z"/>
			</g>
			<g>
				<path style="fill:#BDC3C7;" d="M277,317h-36c-2.209,0-4-1.791-4-4s1.791-4,4-4h36c2.209,0,4,1.791,4,4S279.209,317,277,317z"/>
			</g>
			<g>
				<path style="fill:#BDC3C7;" d="M290,337h-49c-2.209,0-4-1.791-4-4s1.791-4,4-4h49c2.209,0,4,1.791,4,4S292.209,337,290,337z"/>
			</g>
			<g>
				<path style="fill:#BDC3C7;" d="M340,357h-99c-2.209,0-4-1.791-4-4s1.791-4,4-4h99c2.209,0,4,1.791,4,4S342.209,357,340,357z"/>
			</g>
			<g>
				<path style="fill:#1ECA6B;" d="M190,221.5c-1.009,0-2.017-0.38-2.793-1.136l-23-22.428c-1.582-1.543-1.614-4.075-0.071-5.657
					c1.542-1.582,4.075-1.612,5.656-0.071l20.277,19.773l38.211-35.415c1.621-1.502,4.151-1.406,5.653,0.215
					c1.502,1.62,1.406,4.15-0.214,5.652l-41,38C191.951,221.146,190.975,221.5,190,221.5z"/>
			</g>
		</g>
		<path style="fill:#E5BF88;" d="M100.225,351.184L121,308v-43c0,0-2.333-17,13-17s12,15,12,15l0.306,56c0,0,41.025,28,14.806,92
			H222l-33.669,35h-81L100.225,351.184z"/>
		<rect x="100" y="439" style="fill:#ECF0F1;" width="99" height="17"/>
		<rect x="149" y="439" style="fill:#BDC3C7;" width="50" height="17"/>
		<path style="fill:#33495F;" d="M208,507.487V456H96.212C128.12,481.525,166.265,499.569,208,507.487z"/>
		<path style="fill:#2B3E51;" d="M149,488.617c18.574,8.558,38.348,14.952,59,18.87V456h-59V488.617z"/>
		<polygon style="fill:#BFA072;" points="161.112,411 199,434.909 222,411 		"/>
		<circle style="fill:#ECF0F1;" cx="133.5" cy="262" r="9"/>
	</g>
</g>
<g>
</g>
<g>
</g>
<g>
</g>
<g>
</g>
<g>
</g>
<g>
</g>
<g>
</g>
<g>
</g>
<g>
</g>
<g>
</g>
<g>
</g>
<g>
</g>
<g>
</g>
<g>
</g>
<g>
</g>
</svg>
