<?xml version="1.0" encoding="iso-8859-1"?>
<svg version="1.1" id="Layer_1" xmlns="http://www.w3.org/2000/svg" xmlns:xlink="http://www.w3.org/1999/xlink" x="0px" y="0px" viewBox="0 0 489.143 489.143" style="enable-background:new 0 0 489.143 489.143;" xml:space="preserve">
<g>
	<polygon style="fill:#C4C8F5;" points="85.924,272.426 48.7,329.482 159.674,440.457 216.73,403.232"/>
	<polygon style="fill:#C4C8F5;" points="114.551,106.303 17.164,203.69 94.942,228.465 222.331,101.076"/>
	<polygon style="fill:#A7ADF0;" points="285.465,471.992 382.853,374.605 388.081,266.818 260.69,394.208"/>
	<rect x="11.155" y="350.18" transform="matrix(0.7071 0.7071 -0.7071 0.7071 273.7352 87.5724)" style="fill:#FFB655;" width="40.001" height="48.083"/>
	<rect x="94.934" y="433.959" transform="matrix(-0.7071 -0.7071 0.7071 -0.7071 -127.6436 863.1308)" style="fill:#FF9811;" width="40.001" height="48.083"/>
	<rect x="28.795" y="403.425" transform="matrix(0.7071 -0.7071 0.7071 0.7071 -280.5937 169.442)" style="fill:#FFB655;" width="70.884" height="40"/>
	<path style="fill:#165C92;" d="M477.223,23.582l-3.196-8.457L403.84,85.312c19.53,19.53,19.523,51.188,0,70.711 c-19.53,19.53-51.18,19.53-70.711,0L151.325,337.827l82.873,82.873l200.74-200.741C486.288,168.61,502.884,91.528,477.223,23.582z"/>
	<path style="fill:#96C8EF;" d="M403.84,156.023c19.523-19.523,19.53-51.18,0-70.711l-70.711,70.711 C352.659,175.553,384.31,175.553,403.84,156.023z"/>
	<path style="fill:#1E81CE;" d="M333.129,156.023c-19.523-19.523-19.53-51.18,0-70.711c19.523-19.523,51.188-19.523,70.711,0 l70.187-70.187l-8.45-3.189C444.612,4.009,422.571,0,400.085,0c-49.441,0-95.926,19.247-130.885,54.207L68.452,254.954 l82.873,82.873L333.129,156.023z"/>
	<path style="fill:#D1E7F8;" d="M333.129,85.312c-19.53,19.53-19.523,51.188,0,70.711l70.711-70.711 C384.317,65.789,352.652,65.789,333.129,85.312z"/>
</g>
</svg>
