<svg xmlns="http://www.w3.org/2000/svg" viewBox="0 0 489.143 489.143"><path fill="#c4c8f5" d="M85.924 272.426L48.7 329.482l110.974 110.975 57.056-37.225zm28.627-166.123L17.164 203.69l77.778 24.775 127.389-127.389z"/><path fill="#a7adf0" d="M285.465 471.992l97.388-97.387 5.228-107.787-127.391 127.39z"/><path fill="#ffb655" d="M34.01 343.072l28.285 28.285-34 34L.012 377.072z"/><path fill="#ff9811" d="M112.081 489.15l-28.285-28.284 34-34 28.284 28.285z"/><path fill="#ffb655" d="M25.03 434.343l50.12-50.123 28.284 28.284-50.122 50.122z"/><path d="M477.223 23.582l-3.196-8.457-70.187 70.187c19.53 19.53 19.523 51.188 0 70.711-19.53 19.53-51.18 19.53-70.711 0L151.325 337.827l82.873 82.873 200.74-200.741c51.35-51.349 67.946-128.431 42.285-196.377z" fill="#165c92"/><path d="M403.84 156.023c19.523-19.523 19.53-51.18 0-70.711l-70.711 70.711c19.53 19.53 51.181 19.53 70.711 0z" fill="#96c8ef"/><path d="M333.129 156.023c-19.523-19.523-19.53-51.18 0-70.711 19.523-19.523 51.188-19.523 70.711 0l70.187-70.187-8.45-3.189C444.612 4.009 422.571 0 400.085 0 350.644 0 304.159 19.247 269.2 54.207L68.452 254.954l82.873 82.873 181.804-181.804z" fill="#1e81ce"/><path d="M333.129 85.312c-19.53 19.53-19.523 51.188 0 70.711l70.711-70.711c-19.523-19.523-51.188-19.523-70.711 0z" fill="#d1e7f8"/></svg>